<svg viewBox="0 0 90.2 94" xmlns="http://www.w3.org/2000/svg"><path d="m27.3 68.4h32.9v-29-.6a16.24 16.24 0 0 0 -16.5-16.1 16.24 16.24 0 0 0 -16.5 16.1v.6 29z" fill="#031c36" fill-rule="evenodd"/><circle cx="43.9" cy="10.4" fill="#031c36" r="10.4"/><path d="m11.5 62.2h13.1v-25.9h.2a11.69 11.69 0 0 1 1.9-5.4 12.09 12.09 0 0 0 -3.8-.6 11.44 11.44 0 0 0 -11.5 11.2v.5 20.2z" fill="#8fa830" fill-rule="evenodd"/><circle cx="23.9" cy="19.9" fill="#8fa830" r="7.2"/><path d="m.2 56h9.1v-17.8h.1a7.33 7.33 0 0 1 1.4-3.8 10.13 10.13 0 0 0 -2.6-.4 7.84 7.84 0 0 0 -8 7.7.37.37 0 0 0 .1.3h-.1z" fill="#b61e24" fill-rule="evenodd"/><circle cx="8.8" cy="26.8" fill="#b61e24" r="5.1"/><path d="m75.9 62.2h-13.2v-25.9h-.1a11.84 11.84 0 0 0 -2-5.4 13.2 13.2 0 0 1 3.9-.6 11.44 11.44 0 0 1 11.5 11.2.9.9 0 0 1 -.1.5h.1v20.2z" fill="#8fa830" fill-rule="evenodd"/><circle cx="63.6" cy="19.9" fill="#8fa830" r="7.2"/><path d="m87.1 56h-9.1v-17.8h-.1a7.22 7.22 0 0 0 -1.3-3.8 10.87 10.87 0 0 1 2.6-.4 7.84 7.84 0 0 1 8 7.7v.3 14z" fill="#b61e24" fill-rule="evenodd"/><circle cx="78.6" cy="26.8" fill="#b61e24" r="5.1"/><g fill="#0c130b"><path d="m9.4 71.3a4.54 4.54 0 0 1 4.9 4.7c0 7.1-9.7 8.2-9.7 11.5a29.83 29.83 0 0 0 .9 5.6c0 .3-.6.2-.7.2h-3.4c-.6 0-1.4.5-1.4-9.5 0-13.1 1.3-12.7 1.7-12.7h7.7zm.9 5.6c0-1.8-1.5-2.4-3-2.4-1.8 0-3.2.3-3.2 6.4 0 .6 0 1.2.8 1.2 1.2 0 5.4-3.3 5.4-5.2z"/><path d="m16.5 93.4c-1.3.1-.9-.9-1-6.3 0-3.6 1.4-15.8 2.1-15.8h9.7c.3 0 1.2-.1 1.2.5 0 .2-1.6 3.9-1.9 3.9s-1.2-1.2-3.6-1.2a3.38 3.38 0 0 0 -3.5 3.6c0 .6.1 1.5.8 1.5s2.5-1.2 4.6-1.2c.3 0 1.1.1 1.1.6 0 0-1.4 4.4-1.7 4.4a9 9 0 0 0 -2.2-.5c-1.3 0-3.1 1-3.1 3.6 0 2.1 1 3.7 3.1 3.7 2.4 0 4-1.8 4.6-1.8.4 0 2 4.5 2 4.8 0 .5-.6.4-.9.4h-11.3z"/><path d="m36.6 93.8c-5 0-7-3.9-7-8.5 0-6.8 3.6-14.5 8.2-14.5s8.2 7.6 8.2 14.5c0 4.6-2 8.5-7 8.5zm5.4-9c0-5.9-2.5-9.6-4.2-9.6s-4.2 3.7-4.2 9.6c0 3.1 1.6 4.3 4.2 4.3s4.2-1.2 4.2-4.3z"/><path d="m57.2 71.3a4.54 4.54 0 0 1 4.9 4.7c0 7.1-9.7 8.2-9.7 11.5a29.83 29.83 0 0 0 .9 5.6c0 .3-.6.2-.7.2h-3.3c-.6 0-1.4.5-1.4-9.5 0-13.1 1.3-12.7 1.7-12.7h7.6zm.9 5.6c0-1.8-1.5-2.4-3-2.4-1.8 0-3.2.3-3.2 6.4 0 .6 0 1.2.8 1.2 1.2 0 5.4-3.3 5.4-5.2z"/><path d="m64.3 93.4c-1.3.1-.9-.9-1-6.3 0-3.6 1.4-15.8 2.1-15.8h3.9a.47.47 0 0 1 .5.5c0 .6-2.9 6.3-2.9 13.6 0 3.7 1.5 4.5 2.8 4.5 2.3 0 3.7-2.3 4.3-2.3s1.4 5.1 1.4 5.3c0 .5-.8.4-1.1.4h-10z"/><path d="m78 93.4c-1.3.1-.9-.9-1-6.3 0-3.6 1.4-15.8 2.1-15.8h9.7c.3 0 1.2-.1 1.2.5 0 .2-1.6 3.9-1.9 3.9s-1.2-1.2-3.6-1.2a3.38 3.38 0 0 0 -3.5 3.6c0 .6.1 1.5.8 1.5s2.5-1.2 4.6-1.2c.3 0 1.1.1 1.1.6 0 0-1.4 4.4-1.7 4.4a9 9 0 0 0 -2.2-.5c-1.3 0-3.1 1-3.1 3.6 0 2.1 1 3.7 3.1 3.7 2.4 0 4-1.8 4.6-1.8.4 0 2 4.5 2 4.8 0 .5-.6.4-.9.4h-11.3z"/></g></svg>